<svg width="68" height="68" viewBox="0 0 68 68" version="1.1" xmlns="http://www.w3.org/2000/svg" xmlns:xlink="http://www.w3.org/1999/xlink">
<title>Group</title>
<desc>Created using Figma</desc>
<g id="Canvas" transform="translate(-6026 1621)">
<g id="Group">
<g id="Group">
<g id="Vector">
<use xlink:href="#path0_fill" transform="matrix(-5.55112e-17 1 -1 -5.55112e-17 6094 -1621)" fill="#FFEC1A"/>
<mask id="mask0_outline_ins">
<use xlink:href="#path0_fill" fill="white" transform="matrix(-5.55112e-17 1 -1 -5.55112e-17 6094 -1621)"/>
</mask>
<g mask="url(#mask0_outline_ins)">
<use xlink:href="#path1_stroke_2x" transform="matrix(-5.55112e-17 1 -1 -5.55112e-17 6094 -1621)"/>
</g>
</g>
</g>
<g id="Group">
<g id="Vector">
<use xlink:href="#path2_fill" transform="matrix(-5.55112e-17 1 -1 -5.55112e-17 6062.27 -1599.28)"/>
</g>
</g>
<g id="Group">
<g id="Vector">
<use xlink:href="#path3_fill" transform="matrix(-5.55112e-17 1 -1 -5.55112e-17 6073.31 -1604.84)"/>
</g>
</g>
<g id="Group">
<g id="Vector">
<use xlink:href="#path4_fill" transform="matrix(-5.55112e-17 1 -1 -5.55112e-17 6086.88 -1615.12)"/>
</g>
</g>
</g>
</g>
<defs>
<path id="path0_fill" d="M 29.2157 68C 28.8594 68 25.8665 67.9362 25.5103 67.9043C 3.34911 65.7024 0 54.31 0 45.0875C 0 29.6743 19.6671 12.825 28.1468 6.28312C 31.7097 3.53873 37.054 1.49639 43.2534 0.507134C 49.0253 -0.386388 53.7283 -0.0991844 57.3624 1.36875C 65.9134 4.87901 63.9181 13.7823 62.7068 15.7608C 58.5738 22.4942 62.3505 24.2812 64.417 27.1533C 65.2008 28.2382 65.9846 29.2594 66.4122 30.4082C 67.3385 32.7059 67.8373 34.8439 67.9798 36.9182C 68.1936 40.6837 66.7685 43.5558 60.7828 51.6294C 52.7307 62.4793 36.3414 68 29.2157 68Z"/>
<path id="path1_stroke_2x" d="M 25.5103 67.9043L 25.356 69.4566L 25.3635 69.4574L 25.3711 69.4581L 25.5103 67.9043ZM 28.1468 6.28312L 27.1948 5.04725L 27.1939 5.04797L 28.1468 6.28312ZM 43.2534 0.507134L 43.0148 -1.03452L 43.0076 -1.03338L 43.2534 0.507134ZM 57.3624 1.36875L 57.9549 -0.0744103L 57.9467 -0.0777108L 57.3624 1.36875ZM 62.7068 15.7608L 64.0363 16.5769L 64.0372 16.5754L 62.7068 15.7608ZM 64.417 27.1533L 63.1507 28.0644L 63.1524 28.0668L 64.417 27.1533ZM 66.4122 30.4082L 64.9501 30.9523L 64.9575 30.9721L 64.9653 30.9916L 66.4122 30.4082ZM 67.9798 36.9182L 69.5373 36.8298L 69.5368 36.8205L 69.5362 36.8112L 67.9798 36.9182ZM 60.7828 51.6294L 62.0355 52.5591L 62.036 52.5585L 60.7828 51.6294ZM 29.2157 66.44C 29.0605 66.44 28.2451 66.4247 27.4001 66.4045C 26.9833 66.3946 26.5689 66.3838 26.238 66.3734C 26.0722 66.3683 25.9305 66.3634 25.8213 66.3589C 25.7666 66.3566 25.7228 66.3546 25.6899 66.3528C 25.6527 66.3508 25.6428 66.3499 25.6494 66.3505L 25.3711 69.4581C 25.8068 69.4971 28.8664 69.56 29.2157 69.56L 29.2157 66.44ZM 25.6645 66.3519C 14.826 65.275 8.89384 61.9832 5.63707 58.1227C 2.37073 54.2509 1.56 49.5319 1.56 45.0875L -1.56 45.0875C -1.56 49.8656 -0.696176 55.4541 3.25232 60.1345C 7.2104 64.8263 14.0334 68.3316 25.356 69.4566L 25.6645 66.3519ZM 1.56 45.0875C 1.56 37.9756 6.14311 30.2817 12.0768 23.3751C 17.9546 16.5335 24.8978 10.7599 29.0997 7.51827L 27.1939 5.04797C 22.9161 8.34816 15.7859 14.2701 9.71024 21.342C 3.69045 28.3488 -1.56 36.7862 -1.56 45.0875L 1.56 45.0875ZM 29.0987 7.51899C 32.3897 4.98409 37.4602 3.0113 43.4992 2.04764L 43.0076 -1.03338C 36.6478 -0.0185192 31.0297 2.09337 27.1948 5.04725L 29.0987 7.51899ZM 43.4921 2.04877C 49.1128 1.17864 53.5024 1.49202 56.7782 2.8152L 57.9467 -0.0777108C 53.9542 -1.69039 48.9377 -1.95142 43.0148 -1.0345L 43.4921 2.04877ZM 56.77 2.81188C 60.4709 4.33114 61.801 6.9246 62.1513 9.3612C 62.3318 10.6167 62.2504 11.8482 62.0531 12.8774C 61.8504 13.9352 61.5481 14.6657 61.3763 14.9463L 64.0372 16.5754C 64.4711 15.8668 64.8725 14.7424 65.1174 13.4646C 65.3677 12.1583 65.4777 10.5736 65.2396 8.91721C 64.7526 5.52995 62.8049 1.91662 57.9549 -0.0743873L 56.77 2.81188ZM 61.3772 14.9448C 59.1662 18.547 58.8461 21.2208 59.7969 23.5046C 60.237 24.5616 60.9055 25.4159 61.5124 26.1238C 62.17 26.8908 62.685 27.4172 63.1507 28.0644L 65.6832 26.2421C 65.1157 25.4533 64.3837 24.6793 63.8811 24.0931C 63.3278 23.4477 62.923 22.8959 62.6773 22.3055C 62.2563 21.2944 62.1144 19.708 64.0363 16.5769L 61.3772 14.9448ZM 63.1524 28.0668C 63.9919 29.2288 64.6143 30.0498 64.9501 30.9523L 67.8742 29.8641C 67.355 28.469 66.4097 27.2477 65.6815 26.2397L 63.1524 28.0668ZM 64.9653 30.9916C 65.8374 33.1545 66.2934 35.1321 66.4235 37.0251L 69.5362 36.8112C 69.3812 34.5558 68.8397 32.2573 67.859 29.8249L 64.9653 30.9916ZM 66.4223 37.0066C 66.5995 40.1276 65.5643 42.5606 59.5296 50.7003L 62.036 52.5585C 67.9726 44.551 69.7877 41.2399 69.5373 36.8298L 66.4223 37.0066ZM 59.5301 50.6997C 55.7152 55.8401 49.8578 59.7921 44.004 62.4643C 38.1322 65.1447 32.4807 66.44 29.2157 66.44L 29.2157 69.56C 33.0763 69.56 39.1824 68.095 45.2997 65.3026C 51.435 62.5019 57.7983 58.2686 62.0355 52.5591L 59.5301 50.6997Z"/>
<path id="path2_fill" d="M 10.9151 17.6337C 8.13605 17.6337 5.28574 17.0593 3.07675 16.3573C -2.41009 14.5702 0.0126698 7.67734 5.8558 2.69914C 7.42347 1.35886 10.0603 0.0363238 12.0555 0.00441224C 13.9082 -0.0594108 15.9979 0.566352 17.4209 2.06396C 18.6604 3.36845 19.466 4.93295 19.466 6.59235C 19.466 6.59235 19.466 6.59235 19.466 6.59235L 19.466 9.71228C 19.466 10.3553 19.5042 10.999 19.4753 11.6414C 19.3409 14.6217 17.6276 16.5022 14.3355 17.2827C 13.2666 17.538 12.0552 17.6337 10.9151 17.6337ZM 11.4139 1.7418C 11.3664 1.7418 11.319 1.74229 11.2715 1.74487C 10.291 1.79814 9.17791 2.30696 8.06479 3.24164C 2.00788 8.34748 1.08153 14.3149 4.5019 15.4318C 6.85341 16.1977 10.4875 16.8679 13.0528 16.2615C 15.4642 15.6778 16.743 14.0263 16.8349 11.4292C 16.8526 10.9284 16.8295 10.4264 16.8295 9.92527L 16.8295 6.59235C 16.8295 6.59235 16.8295 6.59235 16.8295 6.59235C 16.8295 5.15633 15.9744 3.84796 14.4067 2.82679C 13.4091 2.12474 12.3402 1.7418 11.4139 1.7418Z"/>
<path id="path3_fill" d="M 13.5938 33.4994C 10.5279 33.1561 9.18888 32.6718 6.12291 31.9852C 2.29045 30.9555 0.874485 29.282 0.375681 27.112C -1.40576 18.7193 3.51102 13.5496 7.50145 9.36922C 8.9266 7.83747 10.2805 6.43337 11.2068 4.99735C 13.3446 1.61473 19.4055 -0.384732 23.7522 0.0620297C 27.6714 0.476879 31.0165 3.08266 29.8764 5.89087C 28.795 8.63513 28.9799 11.0845 29.3207 12.627C 29.4339 13.1391 29.5407 13.6538 29.5817 14.1766C 29.6354 14.8614 29.577 15.5522 29.5741 16.2391C 29.5699 17.2323 29.7231 18.5097 29.8764 19.8362C 30.2326 23.6656 30.6602 27.5907 28.8075 29.1544C 27.5249 30.2713 23.6945 32.8796 16.8538 33.3583C 16.355 33.4221 14.0926 33.4994 13.5938 33.4994ZM 21.3254 2.02957C 18.3326 2.02957 15.0548 2.98692 13.5584 5.31646C 12.632 6.8163 11.2068 8.28423 9.78169 9.81598C 5.72001 14.0921 1.15952 18.9108 2.8697 27.0163C 3.29725 28.931 4.93617 29.9202 7.78648 31.1648C 10.2092 32.2498 13.4158 32.2817 16.1236 32.1541C 21.9668 31.8988 25.5296 29.282 26.5273 28.6119C 29.3776 26.761 27.5961 23.1869 27.3111 19.8681C 27.0973 17.8896 26.9548 16.1664 27.0973 15.1133C 27.0973 15.0758 27.0967 15.0362 27.0955 14.9949C 27.0671 14.0063 26.9255 13.0232 26.8003 12.0422C 26.5877 10.3771 26.3433 8.24389 27.3111 5.66749C 28.0949 3.59324 25.4584 2.34869 22.6793 2.06149C 22.2518 2.06149 21.8242 2.02957 21.3254 2.02957Z"/>
<path id="path4_fill" d="M 22.1998 52.3617C 9.56226 52.3617 4.19951 46.5664 1.95324 44.1008C 1.9107 44.0541 1.87086 44.0087 1.82993 43.9606C 1.49248 43.5639 1.20673 43.1301 1.02616 42.6416C -1.17426 36.6887 -1.63645 21.2004 18.8507 7.62174C 28.9693 0.856497 37.9035 -0.680529 42.464 0.244905C 50.7299 1.9043 52.7693 9.91937 50.0615 14.6423C 46.5699 20.7055 47.9238 25.6837 48.7076 27.5345C 48.9214 28.1089 49.0639 28.6514 49.1352 29.2258C 49.2777 30.7576 49.5627 33.5658 49.634 38.3525C 49.7052 42.4053 46.2849 45.405 43.3633 47.1601C 39.6579 49.4577 34.1711 51.1491 28.0429 51.9149C 25.9764 52.234 23.9812 52.3617 22.1998 52.3617ZM 37.3777 2.22869C 32.6034 2.22869 25.8339 4.1753 19.8483 8.13232C 0.403529 21.0129 0.789999 38.1048 3.12686 42.2256C 3.35725 42.6319 3.68248 42.9655 3.98678 43.3198C 4.15747 43.5185 4.32992 43.7145 4.50689 43.9076C 7.14138 46.7836 13.0824 52.6822 27.4728 50.8938C 33.1022 50.1917 38.019 48.66 41.4394 46.5538C 44.1471 44.8944 47.2825 42.15 47.2112 38.4164C 47.14 33.6615 46.5699 30.8533 46.4274 29.3216C 46.3561 28.811 46.4274 28.428 46.2849 27.7579C 45.9286 25.8113 44.0759 20.6416 47.71 14.387C 50.1328 10.1747 47.3537 3.92 40.2992 2.5159C 39.3016 2.32443 38.3753 2.22869 37.3777 2.22869Z"/>
</defs>
</svg>
